G04 #@! TF.FileFunction,Copper,L2,Bot,Signal*
%FSLAX46Y46*%
G04 Gerber Fmt 4.6, Leading zero omitted, Abs format (unit mm)*
G04 Created by KiCad (PCBNEW 4.0.7-e2-6376~58~ubuntu16.04.1) date Fri Nov 24 21:44:44 2023*
%MOMM*%
%LPD*%
G01*
G04 APERTURE LIST*
%ADD10C,0.100000*%
%ADD11R,1.700000X1.700000*%
%ADD12O,1.700000X1.700000*%
%ADD13C,1.000000*%
%ADD14R,1.600000X1.600000*%
%ADD15O,1.600000X1.600000*%
%ADD16O,1.400000X1.600000*%
%ADD17R,1.500000X1.250000*%
%ADD18R,1.300000X1.500000*%
%ADD19R,1.500000X1.500000*%
%ADD20C,0.600000*%
%ADD21C,0.350000*%
%ADD22C,0.250000*%
%ADD23C,0.254000*%
G04 APERTURE END LIST*
D10*
D11*
X169418000Y-145288000D03*
D12*
X171958000Y-145288000D03*
X171958000Y-142748000D03*
X174498000Y-145288000D03*
X174498000Y-142748000D03*
X177038000Y-145288000D03*
X177038000Y-142748000D03*
D13*
X174244000Y-114808000D03*
D14*
X165862000Y-112522000D03*
D15*
X181102000Y-145542000D03*
X165862000Y-115062000D03*
X181102000Y-143002000D03*
X165862000Y-117602000D03*
X181102000Y-140462000D03*
X165862000Y-120142000D03*
X181102000Y-137922000D03*
X165862000Y-122682000D03*
D16*
X181102000Y-135382000D03*
D15*
X165862000Y-125222000D03*
D16*
X181102000Y-132842000D03*
X165862000Y-127762000D03*
X181102000Y-130302000D03*
X165862000Y-130302000D03*
X181102000Y-127762000D03*
X165862000Y-132842000D03*
D15*
X181102000Y-125222000D03*
D16*
X165862000Y-135382000D03*
D15*
X181102000Y-122682000D03*
X165862000Y-137922000D03*
X181102000Y-120142000D03*
X165862000Y-140462000D03*
X181102000Y-117602000D03*
X165862000Y-143002000D03*
X181102000Y-115062000D03*
X165862000Y-145542000D03*
X181102000Y-112522000D03*
D17*
X172212000Y-129540000D03*
X174712000Y-129540000D03*
D18*
X174244000Y-118712000D03*
X174244000Y-121412000D03*
D19*
X172466000Y-116586000D03*
D20*
X172212000Y-129540000D03*
X169672000Y-141732000D03*
X170688000Y-127508000D03*
X175260000Y-134112000D03*
X175768000Y-126746000D03*
X172720000Y-135382000D03*
X175006000Y-112522000D03*
X171704000Y-135382000D03*
X179324000Y-120904000D03*
X177546000Y-113284000D03*
X171196000Y-120142000D03*
X175768000Y-114808000D03*
X174244000Y-121412000D03*
X168910000Y-131826000D03*
X172974000Y-141224000D03*
X167894000Y-126492000D03*
X177800000Y-132588000D03*
X177800000Y-127762000D03*
D21*
X169672000Y-141732000D02*
X170942000Y-141732000D01*
X170942000Y-141732000D02*
X171958000Y-142748000D01*
X174244000Y-127508000D02*
X174712000Y-127976000D01*
X174712000Y-127976000D02*
X174712000Y-129540000D01*
X170688000Y-127508000D02*
X174244000Y-127508000D01*
X174712000Y-133564000D02*
X174712000Y-133350000D01*
X174712000Y-133350000D02*
X174712000Y-129540000D01*
X172720000Y-135382000D02*
X173019999Y-135082001D01*
X173019999Y-135082001D02*
X173019999Y-135042001D01*
X173019999Y-135042001D02*
X174712000Y-133350000D01*
X175260000Y-134112000D02*
X174712000Y-133564000D01*
X175768000Y-126746000D02*
X175768000Y-128484000D01*
X175768000Y-128484000D02*
X174712000Y-129540000D01*
D22*
X165862000Y-112522000D02*
X175006000Y-112522000D01*
X171704000Y-135382000D02*
X170434000Y-134112000D01*
X170434000Y-134112000D02*
X170434000Y-128778000D01*
X170434000Y-128778000D02*
X169926000Y-128270000D01*
X169926000Y-128270000D02*
X169926000Y-123952000D01*
X175768000Y-122936000D02*
X177800000Y-120904000D01*
X169926000Y-123952000D02*
X170942000Y-122936000D01*
X170942000Y-122936000D02*
X175768000Y-122936000D01*
X177800000Y-120904000D02*
X179324000Y-120904000D01*
X179578000Y-142609370D02*
X179578000Y-121158000D01*
X179578000Y-121158000D02*
X179324000Y-120904000D01*
X179970630Y-143002000D02*
X179578000Y-142609370D01*
X179970630Y-143002000D02*
X181102000Y-143002000D01*
X170180000Y-113284000D02*
X177546000Y-113284000D01*
X165862000Y-117602000D02*
X170180000Y-113284000D01*
X181102000Y-120142000D02*
X171196000Y-120142000D01*
X175768000Y-114808000D02*
X180848000Y-114808000D01*
X180848000Y-114808000D02*
X181102000Y-115062000D01*
X174244000Y-114808000D02*
X174244000Y-118712000D01*
X168910000Y-131826000D02*
X168910000Y-143002000D01*
X168910000Y-143002000D02*
X169926000Y-144018000D01*
X169926000Y-144018000D02*
X173228000Y-144018000D01*
X173228000Y-144018000D02*
X174498000Y-142748000D01*
X170942000Y-141224000D02*
X172974000Y-141224000D01*
X169672000Y-139954000D02*
X170942000Y-141224000D01*
X169672000Y-129032000D02*
X169672000Y-139954000D01*
X168193999Y-127553999D02*
X169672000Y-129032000D01*
X167894000Y-126492000D02*
X168193999Y-126791999D01*
X168193999Y-126791999D02*
X168193999Y-127553999D01*
X177800000Y-132588000D02*
X178562000Y-133350000D01*
X178562000Y-133350000D02*
X178562000Y-143764000D01*
X178562000Y-143764000D02*
X177038000Y-145288000D01*
X176784000Y-128778000D02*
X177038000Y-129032000D01*
X177038000Y-129032000D02*
X177038000Y-142748000D01*
X177800000Y-127762000D02*
X176784000Y-128778000D01*
D23*
G36*
X173282355Y-114164235D02*
X173109197Y-114581244D01*
X173108803Y-115032775D01*
X173173172Y-115188560D01*
X171716000Y-115188560D01*
X171480683Y-115232838D01*
X171264559Y-115371910D01*
X171119569Y-115584110D01*
X171068560Y-115836000D01*
X171068560Y-117336000D01*
X171112838Y-117571317D01*
X171251910Y-117787441D01*
X171464110Y-117932431D01*
X171716000Y-117983440D01*
X172946560Y-117983440D01*
X172946560Y-119382000D01*
X171758463Y-119382000D01*
X171726327Y-119349808D01*
X171382799Y-119207162D01*
X171010833Y-119206838D01*
X170667057Y-119348883D01*
X170403808Y-119611673D01*
X170261162Y-119955201D01*
X170260838Y-120327167D01*
X170402883Y-120670943D01*
X170665673Y-120934192D01*
X171009201Y-121076838D01*
X171381167Y-121077162D01*
X171724943Y-120935117D01*
X171758118Y-120902000D01*
X172946560Y-120902000D01*
X172946560Y-122162000D01*
X172949194Y-122176000D01*
X170942000Y-122176000D01*
X170651161Y-122233852D01*
X170404599Y-122398599D01*
X169388599Y-123414599D01*
X169223852Y-123661161D01*
X169166000Y-123952000D01*
X169166000Y-127451198D01*
X168953999Y-127239197D01*
X168953999Y-126791999D01*
X168896147Y-126501160D01*
X168829080Y-126400787D01*
X168829162Y-126306833D01*
X168687117Y-125963057D01*
X168424327Y-125699808D01*
X168080799Y-125557162D01*
X167708833Y-125556838D01*
X167365057Y-125698883D01*
X167101808Y-125961673D01*
X166959162Y-126305201D01*
X166958838Y-126677167D01*
X167100883Y-127020943D01*
X167363673Y-127284192D01*
X167433999Y-127313394D01*
X167433999Y-127553999D01*
X167491851Y-127844838D01*
X167656598Y-128091400D01*
X168912000Y-129346802D01*
X168912000Y-130891001D01*
X168724833Y-130890838D01*
X168381057Y-131032883D01*
X168117808Y-131295673D01*
X167975162Y-131639201D01*
X167974838Y-132011167D01*
X168116883Y-132354943D01*
X168150000Y-132388118D01*
X168150000Y-143002000D01*
X168207852Y-143292839D01*
X168372599Y-143539401D01*
X168623758Y-143790560D01*
X168568000Y-143790560D01*
X168332683Y-143834838D01*
X168116559Y-143973910D01*
X167971569Y-144186110D01*
X167920560Y-144438000D01*
X167920560Y-146138000D01*
X167964838Y-146373317D01*
X168103910Y-146589441D01*
X168133999Y-146610000D01*
X166793580Y-146610000D01*
X167093041Y-146279423D01*
X167253904Y-145891039D01*
X167131915Y-145669000D01*
X165989000Y-145669000D01*
X165989000Y-145689000D01*
X165735000Y-145689000D01*
X165735000Y-145669000D01*
X165715000Y-145669000D01*
X165715000Y-145415000D01*
X165735000Y-145415000D01*
X165735000Y-145395000D01*
X165989000Y-145395000D01*
X165989000Y-145415000D01*
X167131915Y-145415000D01*
X167253904Y-145192961D01*
X167093041Y-144804577D01*
X166717134Y-144389611D01*
X166500297Y-144286986D01*
X166904811Y-144016698D01*
X167215880Y-143551151D01*
X167325113Y-143002000D01*
X167215880Y-142452849D01*
X166904811Y-141987302D01*
X166522725Y-141732000D01*
X166904811Y-141476698D01*
X167215880Y-141011151D01*
X167325113Y-140462000D01*
X167215880Y-139912849D01*
X166904811Y-139447302D01*
X166522725Y-139192000D01*
X166904811Y-138936698D01*
X167215880Y-138471151D01*
X167325113Y-137922000D01*
X167215880Y-137372849D01*
X166904811Y-136907302D01*
X166516268Y-136647685D01*
X166805988Y-136454101D01*
X167095379Y-136020995D01*
X167197000Y-135510113D01*
X167197000Y-135253887D01*
X167095379Y-134743005D01*
X166805988Y-134309899D01*
X166509810Y-134112000D01*
X166805988Y-133914101D01*
X167095379Y-133480995D01*
X167197000Y-132970113D01*
X167197000Y-132713887D01*
X167095379Y-132203005D01*
X166805988Y-131769899D01*
X166509810Y-131572000D01*
X166805988Y-131374101D01*
X167095379Y-130940995D01*
X167197000Y-130430113D01*
X167197000Y-130173887D01*
X167095379Y-129663005D01*
X166805988Y-129229899D01*
X166509810Y-129032000D01*
X166805988Y-128834101D01*
X167095379Y-128400995D01*
X167197000Y-127890113D01*
X167197000Y-127633887D01*
X167095379Y-127123005D01*
X166805988Y-126689899D01*
X166516268Y-126496315D01*
X166904811Y-126236698D01*
X167215880Y-125771151D01*
X167325113Y-125222000D01*
X167215880Y-124672849D01*
X166904811Y-124207302D01*
X166522725Y-123952000D01*
X166904811Y-123696698D01*
X167215880Y-123231151D01*
X167325113Y-122682000D01*
X167215880Y-122132849D01*
X166904811Y-121667302D01*
X166522725Y-121412000D01*
X166904811Y-121156698D01*
X167215880Y-120691151D01*
X167325113Y-120142000D01*
X167215880Y-119592849D01*
X166904811Y-119127302D01*
X166522725Y-118872000D01*
X166904811Y-118616698D01*
X167215880Y-118151151D01*
X167325113Y-117602000D01*
X167260688Y-117278114D01*
X170494802Y-114044000D01*
X173402800Y-114044000D01*
X173282355Y-114164235D01*
X173282355Y-114164235D01*
G37*
X173282355Y-114164235D02*
X173109197Y-114581244D01*
X173108803Y-115032775D01*
X173173172Y-115188560D01*
X171716000Y-115188560D01*
X171480683Y-115232838D01*
X171264559Y-115371910D01*
X171119569Y-115584110D01*
X171068560Y-115836000D01*
X171068560Y-117336000D01*
X171112838Y-117571317D01*
X171251910Y-117787441D01*
X171464110Y-117932431D01*
X171716000Y-117983440D01*
X172946560Y-117983440D01*
X172946560Y-119382000D01*
X171758463Y-119382000D01*
X171726327Y-119349808D01*
X171382799Y-119207162D01*
X171010833Y-119206838D01*
X170667057Y-119348883D01*
X170403808Y-119611673D01*
X170261162Y-119955201D01*
X170260838Y-120327167D01*
X170402883Y-120670943D01*
X170665673Y-120934192D01*
X171009201Y-121076838D01*
X171381167Y-121077162D01*
X171724943Y-120935117D01*
X171758118Y-120902000D01*
X172946560Y-120902000D01*
X172946560Y-122162000D01*
X172949194Y-122176000D01*
X170942000Y-122176000D01*
X170651161Y-122233852D01*
X170404599Y-122398599D01*
X169388599Y-123414599D01*
X169223852Y-123661161D01*
X169166000Y-123952000D01*
X169166000Y-127451198D01*
X168953999Y-127239197D01*
X168953999Y-126791999D01*
X168896147Y-126501160D01*
X168829080Y-126400787D01*
X168829162Y-126306833D01*
X168687117Y-125963057D01*
X168424327Y-125699808D01*
X168080799Y-125557162D01*
X167708833Y-125556838D01*
X167365057Y-125698883D01*
X167101808Y-125961673D01*
X166959162Y-126305201D01*
X166958838Y-126677167D01*
X167100883Y-127020943D01*
X167363673Y-127284192D01*
X167433999Y-127313394D01*
X167433999Y-127553999D01*
X167491851Y-127844838D01*
X167656598Y-128091400D01*
X168912000Y-129346802D01*
X168912000Y-130891001D01*
X168724833Y-130890838D01*
X168381057Y-131032883D01*
X168117808Y-131295673D01*
X167975162Y-131639201D01*
X167974838Y-132011167D01*
X168116883Y-132354943D01*
X168150000Y-132388118D01*
X168150000Y-143002000D01*
X168207852Y-143292839D01*
X168372599Y-143539401D01*
X168623758Y-143790560D01*
X168568000Y-143790560D01*
X168332683Y-143834838D01*
X168116559Y-143973910D01*
X167971569Y-144186110D01*
X167920560Y-144438000D01*
X167920560Y-146138000D01*
X167964838Y-146373317D01*
X168103910Y-146589441D01*
X168133999Y-146610000D01*
X166793580Y-146610000D01*
X167093041Y-146279423D01*
X167253904Y-145891039D01*
X167131915Y-145669000D01*
X165989000Y-145669000D01*
X165989000Y-145689000D01*
X165735000Y-145689000D01*
X165735000Y-145669000D01*
X165715000Y-145669000D01*
X165715000Y-145415000D01*
X165735000Y-145415000D01*
X165735000Y-145395000D01*
X165989000Y-145395000D01*
X165989000Y-145415000D01*
X167131915Y-145415000D01*
X167253904Y-145192961D01*
X167093041Y-144804577D01*
X166717134Y-144389611D01*
X166500297Y-144286986D01*
X166904811Y-144016698D01*
X167215880Y-143551151D01*
X167325113Y-143002000D01*
X167215880Y-142452849D01*
X166904811Y-141987302D01*
X166522725Y-141732000D01*
X166904811Y-141476698D01*
X167215880Y-141011151D01*
X167325113Y-140462000D01*
X167215880Y-139912849D01*
X166904811Y-139447302D01*
X166522725Y-139192000D01*
X166904811Y-138936698D01*
X167215880Y-138471151D01*
X167325113Y-137922000D01*
X167215880Y-137372849D01*
X166904811Y-136907302D01*
X166516268Y-136647685D01*
X166805988Y-136454101D01*
X167095379Y-136020995D01*
X167197000Y-135510113D01*
X167197000Y-135253887D01*
X167095379Y-134743005D01*
X166805988Y-134309899D01*
X166509810Y-134112000D01*
X166805988Y-133914101D01*
X167095379Y-133480995D01*
X167197000Y-132970113D01*
X167197000Y-132713887D01*
X167095379Y-132203005D01*
X166805988Y-131769899D01*
X166509810Y-131572000D01*
X166805988Y-131374101D01*
X167095379Y-130940995D01*
X167197000Y-130430113D01*
X167197000Y-130173887D01*
X167095379Y-129663005D01*
X166805988Y-129229899D01*
X166509810Y-129032000D01*
X166805988Y-128834101D01*
X167095379Y-128400995D01*
X167197000Y-127890113D01*
X167197000Y-127633887D01*
X167095379Y-127123005D01*
X166805988Y-126689899D01*
X166516268Y-126496315D01*
X166904811Y-126236698D01*
X167215880Y-125771151D01*
X167325113Y-125222000D01*
X167215880Y-124672849D01*
X166904811Y-124207302D01*
X166522725Y-123952000D01*
X166904811Y-123696698D01*
X167215880Y-123231151D01*
X167325113Y-122682000D01*
X167215880Y-122132849D01*
X166904811Y-121667302D01*
X166522725Y-121412000D01*
X166904811Y-121156698D01*
X167215880Y-120691151D01*
X167325113Y-120142000D01*
X167215880Y-119592849D01*
X166904811Y-119127302D01*
X166522725Y-118872000D01*
X166904811Y-118616698D01*
X167215880Y-118151151D01*
X167325113Y-117602000D01*
X167260688Y-117278114D01*
X170494802Y-114044000D01*
X173402800Y-114044000D01*
X173282355Y-114164235D01*
G36*
X172085000Y-145161000D02*
X172105000Y-145161000D01*
X172105000Y-145415000D01*
X172085000Y-145415000D01*
X172085000Y-145435000D01*
X171831000Y-145435000D01*
X171831000Y-145415000D01*
X171811000Y-145415000D01*
X171811000Y-145161000D01*
X171831000Y-145161000D01*
X171831000Y-145141000D01*
X172085000Y-145141000D01*
X172085000Y-145161000D01*
X172085000Y-145161000D01*
G37*
X172085000Y-145161000D02*
X172105000Y-145161000D01*
X172105000Y-145415000D01*
X172085000Y-145415000D01*
X172085000Y-145435000D01*
X171831000Y-145435000D01*
X171831000Y-145415000D01*
X171811000Y-145415000D01*
X171811000Y-145161000D01*
X171831000Y-145161000D01*
X171831000Y-145141000D01*
X172085000Y-145141000D01*
X172085000Y-145161000D01*
G36*
X170404599Y-141761401D02*
X170651160Y-141926148D01*
X170727720Y-141941377D01*
X170516514Y-142391108D01*
X170637181Y-142621000D01*
X171831000Y-142621000D01*
X171831000Y-142601000D01*
X172085000Y-142601000D01*
X172085000Y-142621000D01*
X172105000Y-142621000D01*
X172105000Y-142875000D01*
X172085000Y-142875000D01*
X172085000Y-142895000D01*
X171831000Y-142895000D01*
X171831000Y-142875000D01*
X170637181Y-142875000D01*
X170516514Y-143104892D01*
X170588418Y-143258000D01*
X170240802Y-143258000D01*
X169670000Y-142687198D01*
X169670000Y-141026802D01*
X170404599Y-141761401D01*
X170404599Y-141761401D01*
G37*
X170404599Y-141761401D02*
X170651160Y-141926148D01*
X170727720Y-141941377D01*
X170516514Y-142391108D01*
X170637181Y-142621000D01*
X171831000Y-142621000D01*
X171831000Y-142601000D01*
X172085000Y-142601000D01*
X172085000Y-142621000D01*
X172105000Y-142621000D01*
X172105000Y-142875000D01*
X172085000Y-142875000D01*
X172085000Y-142895000D01*
X171831000Y-142895000D01*
X171831000Y-142875000D01*
X170637181Y-142875000D01*
X170516514Y-143104892D01*
X170588418Y-143258000D01*
X170240802Y-143258000D01*
X169670000Y-142687198D01*
X169670000Y-141026802D01*
X170404599Y-141761401D01*
G36*
X178793673Y-121696192D02*
X178818000Y-121706294D01*
X178818000Y-132531198D01*
X178735122Y-132448320D01*
X178735162Y-132402833D01*
X178593117Y-132059057D01*
X178330327Y-131795808D01*
X177986799Y-131653162D01*
X177798000Y-131652998D01*
X177798000Y-129032000D01*
X177765946Y-128870856D01*
X177939680Y-128697122D01*
X177985167Y-128697162D01*
X178328943Y-128555117D01*
X178592192Y-128292327D01*
X178734838Y-127948799D01*
X178735162Y-127576833D01*
X178593117Y-127233057D01*
X178330327Y-126969808D01*
X177986799Y-126827162D01*
X177614833Y-126826838D01*
X177271057Y-126968883D01*
X177007808Y-127231673D01*
X176865162Y-127575201D01*
X176865121Y-127622077D01*
X176246599Y-128240599D01*
X176081852Y-128487161D01*
X176046246Y-128666160D01*
X176000327Y-128555301D01*
X175821698Y-128376673D01*
X175588309Y-128280000D01*
X174997750Y-128280000D01*
X174839000Y-128438750D01*
X174839000Y-129413000D01*
X175938250Y-129413000D01*
X176097000Y-129254250D01*
X176097000Y-129091510D01*
X176246599Y-129315401D01*
X176278000Y-129346802D01*
X176278000Y-141475046D01*
X175987946Y-141668853D01*
X175768000Y-141998026D01*
X175548054Y-141668853D01*
X175066285Y-141346946D01*
X174498000Y-141233907D01*
X173929715Y-141346946D01*
X173908881Y-141360866D01*
X173909162Y-141038833D01*
X173767117Y-140695057D01*
X173504327Y-140431808D01*
X173160799Y-140289162D01*
X172788833Y-140288838D01*
X172445057Y-140430883D01*
X172411882Y-140464000D01*
X171256802Y-140464000D01*
X170432000Y-139639198D01*
X170432000Y-135184802D01*
X170768878Y-135521680D01*
X170768838Y-135567167D01*
X170910883Y-135910943D01*
X171173673Y-136174192D01*
X171517201Y-136316838D01*
X171889167Y-136317162D01*
X172232943Y-136175117D01*
X172496192Y-135912327D01*
X172638838Y-135568799D01*
X172639162Y-135196833D01*
X172497117Y-134853057D01*
X172234327Y-134589808D01*
X171890799Y-134447162D01*
X171843923Y-134447121D01*
X171194000Y-133797198D01*
X171194000Y-130750424D01*
X171210110Y-130761431D01*
X171462000Y-130812440D01*
X172962000Y-130812440D01*
X173197317Y-130768162D01*
X173413441Y-130629090D01*
X173459969Y-130560994D01*
X173602302Y-130703327D01*
X173835691Y-130800000D01*
X174426250Y-130800000D01*
X174585000Y-130641250D01*
X174585000Y-129667000D01*
X174839000Y-129667000D01*
X174839000Y-130641250D01*
X174997750Y-130800000D01*
X175588309Y-130800000D01*
X175821698Y-130703327D01*
X176000327Y-130524699D01*
X176097000Y-130291310D01*
X176097000Y-129825750D01*
X175938250Y-129667000D01*
X174839000Y-129667000D01*
X174585000Y-129667000D01*
X174565000Y-129667000D01*
X174565000Y-129413000D01*
X174585000Y-129413000D01*
X174585000Y-128438750D01*
X174426250Y-128280000D01*
X173835691Y-128280000D01*
X173602302Y-128376673D01*
X173461064Y-128517910D01*
X173426090Y-128463559D01*
X173213890Y-128318569D01*
X172962000Y-128267560D01*
X171462000Y-128267560D01*
X171226683Y-128311838D01*
X171081447Y-128405295D01*
X170971401Y-128240599D01*
X170686000Y-127955198D01*
X170686000Y-124266802D01*
X171256802Y-123696000D01*
X175768000Y-123696000D01*
X176058839Y-123638148D01*
X176305401Y-123473401D01*
X178114802Y-121664000D01*
X178761537Y-121664000D01*
X178793673Y-121696192D01*
X178793673Y-121696192D01*
G37*
X178793673Y-121696192D02*
X178818000Y-121706294D01*
X178818000Y-132531198D01*
X178735122Y-132448320D01*
X178735162Y-132402833D01*
X178593117Y-132059057D01*
X178330327Y-131795808D01*
X177986799Y-131653162D01*
X177798000Y-131652998D01*
X177798000Y-129032000D01*
X177765946Y-128870856D01*
X177939680Y-128697122D01*
X177985167Y-128697162D01*
X178328943Y-128555117D01*
X178592192Y-128292327D01*
X178734838Y-127948799D01*
X178735162Y-127576833D01*
X178593117Y-127233057D01*
X178330327Y-126969808D01*
X177986799Y-126827162D01*
X177614833Y-126826838D01*
X177271057Y-126968883D01*
X177007808Y-127231673D01*
X176865162Y-127575201D01*
X176865121Y-127622077D01*
X176246599Y-128240599D01*
X176081852Y-128487161D01*
X176046246Y-128666160D01*
X176000327Y-128555301D01*
X175821698Y-128376673D01*
X175588309Y-128280000D01*
X174997750Y-128280000D01*
X174839000Y-128438750D01*
X174839000Y-129413000D01*
X175938250Y-129413000D01*
X176097000Y-129254250D01*
X176097000Y-129091510D01*
X176246599Y-129315401D01*
X176278000Y-129346802D01*
X176278000Y-141475046D01*
X175987946Y-141668853D01*
X175768000Y-141998026D01*
X175548054Y-141668853D01*
X175066285Y-141346946D01*
X174498000Y-141233907D01*
X173929715Y-141346946D01*
X173908881Y-141360866D01*
X173909162Y-141038833D01*
X173767117Y-140695057D01*
X173504327Y-140431808D01*
X173160799Y-140289162D01*
X172788833Y-140288838D01*
X172445057Y-140430883D01*
X172411882Y-140464000D01*
X171256802Y-140464000D01*
X170432000Y-139639198D01*
X170432000Y-135184802D01*
X170768878Y-135521680D01*
X170768838Y-135567167D01*
X170910883Y-135910943D01*
X171173673Y-136174192D01*
X171517201Y-136316838D01*
X171889167Y-136317162D01*
X172232943Y-136175117D01*
X172496192Y-135912327D01*
X172638838Y-135568799D01*
X172639162Y-135196833D01*
X172497117Y-134853057D01*
X172234327Y-134589808D01*
X171890799Y-134447162D01*
X171843923Y-134447121D01*
X171194000Y-133797198D01*
X171194000Y-130750424D01*
X171210110Y-130761431D01*
X171462000Y-130812440D01*
X172962000Y-130812440D01*
X173197317Y-130768162D01*
X173413441Y-130629090D01*
X173459969Y-130560994D01*
X173602302Y-130703327D01*
X173835691Y-130800000D01*
X174426250Y-130800000D01*
X174585000Y-130641250D01*
X174585000Y-129667000D01*
X174839000Y-129667000D01*
X174839000Y-130641250D01*
X174997750Y-130800000D01*
X175588309Y-130800000D01*
X175821698Y-130703327D01*
X176000327Y-130524699D01*
X176097000Y-130291310D01*
X176097000Y-129825750D01*
X175938250Y-129667000D01*
X174839000Y-129667000D01*
X174585000Y-129667000D01*
X174565000Y-129667000D01*
X174565000Y-129413000D01*
X174585000Y-129413000D01*
X174585000Y-128438750D01*
X174426250Y-128280000D01*
X173835691Y-128280000D01*
X173602302Y-128376673D01*
X173461064Y-128517910D01*
X173426090Y-128463559D01*
X173213890Y-128318569D01*
X172962000Y-128267560D01*
X171462000Y-128267560D01*
X171226683Y-128311838D01*
X171081447Y-128405295D01*
X170971401Y-128240599D01*
X170686000Y-127955198D01*
X170686000Y-124266802D01*
X171256802Y-123696000D01*
X175768000Y-123696000D01*
X176058839Y-123638148D01*
X176305401Y-123473401D01*
X178114802Y-121664000D01*
X178761537Y-121664000D01*
X178793673Y-121696192D01*
M02*
