G04 #@! TF.FileFunction,Legend,Top*
%FSLAX46Y46*%
G04 Gerber Fmt 4.6, Leading zero omitted, Abs format (unit mm)*
G04 Created by KiCad (PCBNEW 4.0.7-e2-6376~58~ubuntu16.04.1) date Fri Nov 24 21:44:44 2023*
%MOMM*%
%LPD*%
G01*
G04 APERTURE LIST*
%ADD10C,0.100000*%
%ADD11C,0.200000*%
%ADD12C,0.300000*%
%ADD13C,0.120000*%
%ADD14C,0.150000*%
G04 APERTURE END LIST*
D10*
D11*
X175368000Y-146919905D02*
X175368000Y-146119905D01*
X175558476Y-146119905D01*
X175672762Y-146158000D01*
X175748953Y-146234190D01*
X175787048Y-146310381D01*
X175825143Y-146462762D01*
X175825143Y-146577048D01*
X175787048Y-146729429D01*
X175748953Y-146805619D01*
X175672762Y-146881810D01*
X175558476Y-146919905D01*
X175368000Y-146919905D01*
X176168000Y-146919905D02*
X176168000Y-146119905D01*
X173850381Y-141331905D02*
X173850381Y-140531905D01*
X174117048Y-141103333D01*
X174383715Y-140531905D01*
X174383715Y-141331905D01*
X174726572Y-141293810D02*
X174840858Y-141331905D01*
X175031334Y-141331905D01*
X175107524Y-141293810D01*
X175145620Y-141255714D01*
X175183715Y-141179524D01*
X175183715Y-141103333D01*
X175145620Y-141027143D01*
X175107524Y-140989048D01*
X175031334Y-140950952D01*
X174878953Y-140912857D01*
X174802762Y-140874762D01*
X174764667Y-140836667D01*
X174726572Y-140760476D01*
X174726572Y-140684286D01*
X174764667Y-140608095D01*
X174802762Y-140570000D01*
X174878953Y-140531905D01*
X175069429Y-140531905D01*
X175183715Y-140570000D01*
X179171619Y-144811714D02*
X179133524Y-144849810D01*
X179019238Y-144887905D01*
X178943048Y-144887905D01*
X178828762Y-144849810D01*
X178752571Y-144773619D01*
X178714476Y-144697429D01*
X178676381Y-144545048D01*
X178676381Y-144430762D01*
X178714476Y-144278381D01*
X178752571Y-144202190D01*
X178828762Y-144126000D01*
X178943048Y-144087905D01*
X179019238Y-144087905D01*
X179133524Y-144126000D01*
X179171619Y-144164095D01*
X179514476Y-144887905D02*
X179514476Y-144087905D01*
X179971619Y-144887905D02*
X179628762Y-144430762D01*
X179971619Y-144087905D02*
X179514476Y-144545048D01*
X176409429Y-141331905D02*
X176409429Y-140531905D01*
X176599905Y-140531905D01*
X176714191Y-140570000D01*
X176790382Y-140646190D01*
X176828477Y-140722381D01*
X176866572Y-140874762D01*
X176866572Y-140989048D01*
X176828477Y-141141429D01*
X176790382Y-141217619D01*
X176714191Y-141293810D01*
X176599905Y-141331905D01*
X176409429Y-141331905D01*
X177361810Y-140531905D02*
X177514191Y-140531905D01*
X177590382Y-140570000D01*
X177666572Y-140646190D01*
X177704667Y-140798571D01*
X177704667Y-141065238D01*
X177666572Y-141217619D01*
X177590382Y-141293810D01*
X177514191Y-141331905D01*
X177361810Y-141331905D01*
X177285620Y-141293810D01*
X177209429Y-141217619D01*
X177171334Y-141065238D01*
X177171334Y-140798571D01*
X177209429Y-140646190D01*
X177285620Y-140570000D01*
X177361810Y-140531905D01*
D12*
X172402858Y-121066571D02*
X172402858Y-118923714D01*
X173474286Y-120566571D02*
X173474286Y-119566571D01*
X173474286Y-119066571D02*
X173402857Y-119138000D01*
X173474286Y-119209429D01*
X173545714Y-119138000D01*
X173474286Y-119066571D01*
X173474286Y-119209429D01*
X175260000Y-118995143D02*
X173974286Y-120923714D01*
X175760001Y-120566571D02*
X175760001Y-119566571D01*
X175760001Y-119709429D02*
X175831429Y-119638000D01*
X175974287Y-119566571D01*
X176188572Y-119566571D01*
X176331429Y-119638000D01*
X176402858Y-119780857D01*
X176402858Y-120566571D01*
X176402858Y-119780857D02*
X176474287Y-119638000D01*
X176617144Y-119566571D01*
X176831429Y-119566571D01*
X176974287Y-119638000D01*
X177045715Y-119780857D01*
X177045715Y-120566571D01*
X178117144Y-121066571D02*
X178117144Y-118923714D01*
D13*
X178368000Y-146618000D02*
X178368000Y-141418000D01*
X170688000Y-146618000D02*
X178368000Y-146618000D01*
X168088000Y-141418000D02*
X178368000Y-141418000D01*
X170688000Y-146618000D02*
X170688000Y-144018000D01*
X170688000Y-144018000D02*
X168088000Y-144018000D01*
X168088000Y-144018000D02*
X168088000Y-141418000D01*
X169418000Y-146618000D02*
X168088000Y-146618000D01*
X168088000Y-146618000D02*
X168088000Y-145288000D01*
X174482000Y-111192000D02*
G75*
G02X172482000Y-111192000I-1000000J0D01*
G01*
X172482000Y-111192000D02*
X167022000Y-111192000D01*
X167022000Y-111192000D02*
X167022000Y-146872000D01*
X167022000Y-146872000D02*
X179942000Y-146872000D01*
X179942000Y-146872000D02*
X179942000Y-111192000D01*
X179942000Y-111192000D02*
X174482000Y-111192000D01*
D14*
X168307000Y-125889000D02*
X168307000Y-126464000D01*
X178657000Y-125889000D02*
X178657000Y-126564000D01*
X178657000Y-136239000D02*
X178657000Y-135564000D01*
X168307000Y-136239000D02*
X168307000Y-135564000D01*
X168307000Y-125889000D02*
X168982000Y-125889000D01*
X168307000Y-136239000D02*
X168982000Y-136239000D01*
X178657000Y-136239000D02*
X177982000Y-136239000D01*
X178657000Y-125889000D02*
X177982000Y-125889000D01*
X168307000Y-126464000D02*
X167032000Y-126464000D01*
D13*
X171516000Y-115636000D02*
X173416000Y-115636000D01*
X173416000Y-115636000D02*
X173416000Y-117536000D01*
X173416000Y-117536000D02*
X171516000Y-117536000D01*
X171516000Y-117536000D02*
X171516000Y-115636000D01*
D14*
X170283334Y-139660381D02*
X170283334Y-140374667D01*
X170235714Y-140517524D01*
X170140476Y-140612762D01*
X169997619Y-140660381D01*
X169902381Y-140660381D01*
X170616667Y-139660381D02*
X171188096Y-139660381D01*
X170902381Y-140660381D02*
X170902381Y-139660381D01*
X171473810Y-140374667D02*
X171950001Y-140374667D01*
X171378572Y-140660381D02*
X171711905Y-139660381D01*
X172045239Y-140660381D01*
X172902382Y-139708000D02*
X172807144Y-139660381D01*
X172664287Y-139660381D01*
X172521429Y-139708000D01*
X172426191Y-139803238D01*
X172378572Y-139898476D01*
X172330953Y-140088952D01*
X172330953Y-140231810D01*
X172378572Y-140422286D01*
X172426191Y-140517524D01*
X172521429Y-140612762D01*
X172664287Y-140660381D01*
X172759525Y-140660381D01*
X172902382Y-140612762D01*
X172950001Y-140565143D01*
X172950001Y-140231810D01*
X172759525Y-140231810D01*
X168068667Y-111212381D02*
X168068667Y-111926667D01*
X168021047Y-112069524D01*
X167925809Y-112164762D01*
X167782952Y-112212381D01*
X167687714Y-112212381D01*
X169068667Y-112212381D02*
X168497238Y-112212381D01*
X168782952Y-112212381D02*
X168782952Y-111212381D01*
X168687714Y-111355238D01*
X168592476Y-111450476D01*
X168497238Y-111498095D01*
X172720095Y-123066381D02*
X172720095Y-123875905D01*
X172767714Y-123971143D01*
X172815333Y-124018762D01*
X172910571Y-124066381D01*
X173101048Y-124066381D01*
X173196286Y-124018762D01*
X173243905Y-123971143D01*
X173291524Y-123875905D01*
X173291524Y-123066381D01*
X174291524Y-124066381D02*
X173720095Y-124066381D01*
X174005809Y-124066381D02*
X174005809Y-123066381D01*
X173910571Y-123209238D01*
X173815333Y-123304476D01*
X173720095Y-123352095D01*
X167926381Y-113752381D02*
X168164476Y-114752381D01*
X168354953Y-114038095D01*
X168545429Y-114752381D01*
X168783524Y-113752381D01*
X169164476Y-114752381D02*
X169164476Y-114085714D01*
X169164476Y-113752381D02*
X169116857Y-113800000D01*
X169164476Y-113847619D01*
X169212095Y-113800000D01*
X169164476Y-113752381D01*
X169164476Y-113847619D01*
X169640666Y-114752381D02*
X169640666Y-114085714D01*
X169640666Y-114276190D02*
X169688285Y-114180952D01*
X169735904Y-114133333D01*
X169831142Y-114085714D01*
X169926381Y-114085714D01*
X170640667Y-114704762D02*
X170545429Y-114752381D01*
X170354952Y-114752381D01*
X170259714Y-114704762D01*
X170212095Y-114609524D01*
X170212095Y-114228571D01*
X170259714Y-114133333D01*
X170354952Y-114085714D01*
X170545429Y-114085714D01*
X170640667Y-114133333D01*
X170688286Y-114228571D01*
X170688286Y-114323810D01*
X170212095Y-114419048D01*
X171116857Y-114371429D02*
X171878762Y-114371429D01*
X172354952Y-113752381D02*
X172354952Y-114561905D01*
X172402571Y-114657143D01*
X172450190Y-114704762D01*
X172545428Y-114752381D01*
X172735905Y-114752381D01*
X172831143Y-114704762D01*
X172878762Y-114657143D01*
X172926381Y-114561905D01*
X172926381Y-113752381D01*
X173354952Y-113847619D02*
X173402571Y-113800000D01*
X173497809Y-113752381D01*
X173735905Y-113752381D01*
X173831143Y-113800000D01*
X173878762Y-113847619D01*
X173926381Y-113942857D01*
X173926381Y-114038095D01*
X173878762Y-114180952D01*
X173307333Y-114752381D01*
X173926381Y-114752381D01*
X174307333Y-114466667D02*
X174783524Y-114466667D01*
X174212095Y-114752381D02*
X174545428Y-113752381D01*
X174878762Y-114752381D01*
X175212095Y-114371429D02*
X175974000Y-114371429D01*
X176450190Y-114752381D02*
X176450190Y-113752381D01*
X176831143Y-113752381D01*
X176926381Y-113800000D01*
X176974000Y-113847619D01*
X177021619Y-113942857D01*
X177021619Y-114085714D01*
X176974000Y-114180952D01*
X176926381Y-114228571D01*
X176831143Y-114276190D01*
X176450190Y-114276190D01*
X177402571Y-113847619D02*
X177450190Y-113800000D01*
X177545428Y-113752381D01*
X177783524Y-113752381D01*
X177878762Y-113800000D01*
X177926381Y-113847619D01*
X177974000Y-113942857D01*
X177974000Y-114038095D01*
X177926381Y-114180952D01*
X177354952Y-114752381D01*
X177974000Y-114752381D01*
M02*
