M48
;DRILL file {KiCad 4.0.7-e2-6376~58~ubuntu16.04.1} date Fri Nov 24 21:44:50 2023
;FORMAT={-:-/ absolute / inch / decimal}
FMAT,2
INCH,TZ
T1C0.016
T2C0.031
T3C0.039
T4C0.028
%
G90
G05
M72
T1
X6.61Y-4.98
X6.65Y-5.19
X6.68Y-5.58
X6.72Y-5.02
X6.74Y-4.73
X6.76Y-5.33
X6.78Y-5.1
X6.8Y-5.33
X6.81Y-5.56
X6.86Y-4.78
X6.89Y-4.43
X6.9Y-5.28
X6.92Y-4.52
X6.92Y-4.99
X6.99Y-4.46
X7.Y-5.03
X7.Y-5.22
X7.06Y-4.76
T2
X6.53Y-4.43
X6.53Y-4.53
X6.53Y-4.63
X6.53Y-4.73
X6.53Y-4.83
X6.53Y-4.93
X6.53Y-5.03
X6.53Y-5.13
X6.53Y-5.23
X6.53Y-5.33
X6.53Y-5.43
X6.53Y-5.53
X6.53Y-5.63
X6.53Y-5.73
X7.13Y-4.43
X7.13Y-4.53
X7.13Y-4.63
X7.13Y-4.73
X7.13Y-4.83
X7.13Y-4.93
X7.13Y-5.03
X7.13Y-5.13
X7.13Y-5.23
X7.13Y-5.33
X7.13Y-5.43
X7.13Y-5.53
X7.13Y-5.63
X7.13Y-5.73
T3
X6.67Y-5.72
X6.77Y-5.62
X6.77Y-5.72
X6.87Y-5.62
X6.87Y-5.72
X6.97Y-5.62
X6.97Y-5.72
T4
X6.79Y-4.59
T0
M30
