G04 #@! TF.FileFunction,Soldermask,Top*
%FSLAX46Y46*%
G04 Gerber Fmt 4.6, Leading zero omitted, Abs format (unit mm)*
G04 Created by KiCad (PCBNEW 4.0.7-e2-6376~58~ubuntu16.04.1) date Fri Nov 24 21:44:44 2023*
%MOMM*%
%LPD*%
G01*
G04 APERTURE LIST*
%ADD10C,0.100000*%
%ADD11R,2.100000X2.100000*%
%ADD12O,2.100000X2.100000*%
%ADD13R,2.000000X2.000000*%
%ADD14O,2.000000X2.000000*%
%ADD15O,1.800000X2.000000*%
%ADD16R,1.900000X0.950000*%
%ADD17R,0.950000X1.900000*%
%ADD18R,1.900000X1.900000*%
G04 APERTURE END LIST*
D10*
D11*
X169418000Y-145288000D03*
D12*
X171958000Y-145288000D03*
X171958000Y-142748000D03*
X174498000Y-145288000D03*
X174498000Y-142748000D03*
X177038000Y-145288000D03*
X177038000Y-142748000D03*
D13*
X165862000Y-112522000D03*
D14*
X181102000Y-145542000D03*
X165862000Y-115062000D03*
X181102000Y-143002000D03*
X165862000Y-117602000D03*
X181102000Y-140462000D03*
X165862000Y-120142000D03*
X181102000Y-137922000D03*
X165862000Y-122682000D03*
D15*
X181102000Y-135382000D03*
D14*
X165862000Y-125222000D03*
D15*
X181102000Y-132842000D03*
X165862000Y-127762000D03*
X181102000Y-130302000D03*
X165862000Y-130302000D03*
X181102000Y-127762000D03*
X165862000Y-132842000D03*
D14*
X181102000Y-125222000D03*
D15*
X165862000Y-135382000D03*
D14*
X181102000Y-122682000D03*
X165862000Y-137922000D03*
X181102000Y-120142000D03*
X165862000Y-140462000D03*
X181102000Y-117602000D03*
X165862000Y-143002000D03*
X181102000Y-115062000D03*
X165862000Y-145542000D03*
X181102000Y-112522000D03*
D16*
X167782000Y-127064000D03*
X167782000Y-127864000D03*
X167782000Y-128664000D03*
X167782000Y-129464000D03*
X167782000Y-130264000D03*
X167782000Y-131064000D03*
X167782000Y-131864000D03*
X167782000Y-132664000D03*
X167782000Y-133464000D03*
X167782000Y-134264000D03*
X167782000Y-135064000D03*
D17*
X169482000Y-136764000D03*
X170282000Y-136764000D03*
X171082000Y-136764000D03*
X171882000Y-136764000D03*
X172682000Y-136764000D03*
X173482000Y-136764000D03*
X174282000Y-136764000D03*
X175082000Y-136764000D03*
X175882000Y-136764000D03*
X176682000Y-136764000D03*
X177482000Y-136764000D03*
D16*
X179182000Y-135064000D03*
X179182000Y-134264000D03*
X179182000Y-133464000D03*
X179182000Y-132664000D03*
X179182000Y-131864000D03*
X179182000Y-131064000D03*
X179182000Y-130264000D03*
X179182000Y-129464000D03*
X179182000Y-128664000D03*
X179182000Y-127864000D03*
X179182000Y-127064000D03*
D17*
X177482000Y-125364000D03*
X176682000Y-125364000D03*
X175882000Y-125364000D03*
X175082000Y-125364000D03*
X174282000Y-125364000D03*
X173482000Y-125364000D03*
X172682000Y-125364000D03*
X171882000Y-125364000D03*
X171082000Y-125364000D03*
X170282000Y-125364000D03*
X169482000Y-125364000D03*
D18*
X172466000Y-116586000D03*
M02*
